<?xml version="1.0" encoding="UTF-8"?>
<svg width="128" height="128" viewBox="0 0 128 128" xmlns="http://www.w3.org/2000/svg">
  <!-- Background circle -->
  <circle cx="64" cy="64" r="60" fill="#1a1a2e" stroke="#16213e" stroke-width="8"/>
  
  <!-- Terminal window -->
  <rect x="20" y="30" width="88" height="68" rx="8" fill="#0f3460" stroke="#16213e" stroke-width="2"/>
  
  <!-- Terminal header -->
  <rect x="20" y="30" width="88" height="16" rx="8" fill="#16213e"/>
  <rect x="20" y="38" width="88" height="8" fill="#16213e"/>
  
  <!-- Window controls -->
  <circle cx="30" cy="38" r="3" fill="#ff5f56"/>
  <circle cx="42" cy="38" r="3" fill="#ffbd2e"/>
  <circle cx="54" cy="38" r="3" fill="#27ca3f"/>
  
  <!-- Chat bubbles -->
  <!-- User message -->
  <rect x="28" y="52" width="35" height="12" rx="6" fill="#4a90e2"/>
  <polygon points="63,58 68,55 68,61" fill="#4a90e2"/>
  
  <!-- AI response -->
  <rect x="65" y="68" width="35" height="12" rx="6" fill="#7ed321"/>
  <polygon points="65,74 60,71 60,77" fill="#7ed321"/>
  
  <!-- Archive symbol -->
  <rect x="75" y="82" width="20" height="12" rx="2" fill="#f5a623" stroke="#d68910" stroke-width="1"/>
  <rect x="77" y="85" width="16" height="2" fill="#d68910"/>
  <rect x="77" y="88" width="12" height="2" fill="#d68910"/>
  
  <!-- Warp effect lines -->
  <path d="M 12 20 Q 64 15 116 20" stroke="#7ed321" stroke-width="2" fill="none" opacity="0.6"/>
  <path d="M 12 108 Q 64 113 116 108" stroke="#7ed321" stroke-width="2" fill="none" opacity="0.6"/>
  
  <!-- Data flow arrows -->
  <path d="M 35 40 L 40 35 L 45 40" stroke="#4a90e2" stroke-width="2" fill="none" opacity="0.8"/>
  <path d="M 85 88 L 90 83 L 95 88" stroke="#f5a623" stroke-width="2" fill="none" opacity="0.8"/>
  
  <!-- Glow effect -->
  <circle cx="64" cy="64" r="58" fill="none" stroke="url(#glow)" stroke-width="2" opacity="0.3"/>
  
  <!-- Gradient definitions -->
  <defs>
    <radialGradient id="glow" cx="50%" cy="50%" r="50%">
      <stop offset="0%" style="stop-color:#7ed321;stop-opacity:1" />
      <stop offset="100%" style="stop-color:#4a90e2;stop-opacity:0" />
    </radialGradient>
  </defs>
</svg>